<?xml version="1.0" encoding="UTF-8" standalone="no"?>
<svg xmlns:ffdec="https://www.free-decompiler.com/flash" xmlns:xlink="http://www.w3.org/1999/xlink" ffdec:objectType="shape" height="197.05px" width="561.05px" xmlns="http://www.w3.org/2000/svg">
  <g transform="matrix(1.0, 0.0, 0.0, 1.0, -46.45, -43.5)">
    <path d="M73.45 47.25 Q78.75 51.6 79.4 58.4 80.05 65.15 75.75 70.5 71.4 75.8 64.6 76.45 57.85 77.1 52.5 72.8 47.2 68.45 46.55 61.65 45.9 54.9 50.2 49.55 54.55 44.25 61.35 43.6 68.1 42.95 73.45 47.25" fill="#363636" fill-rule="evenodd" stroke="none"/>
    <path d="M50.7 70.75 L71.1 45.9 76.35 50.2 56.0 75.1 50.7 70.75" fill="#40403f" fill-rule="evenodd" stroke="none"/>
    <path d="M596.2 47.75 Q602.55 50.35 605.2 56.65 607.85 62.95 605.25 69.25 602.65 75.6 596.35 78.25 590.05 80.9 583.75 78.3 577.4 75.7 574.75 69.4 572.15 63.1 574.7 56.8 577.3 50.45 583.6 47.8 589.9 45.2 596.2 47.75" fill="#363636" fill-rule="evenodd" stroke="none"/>
    <path d="M573.55 65.45 L603.2 53.0 605.85 59.3 576.2 71.7 573.55 65.45" fill="#40403f" fill-rule="evenodd" stroke="none"/>
    <path d="M80.35 217.8 Q81.25 224.6 77.1 230.0 73.0 235.45 66.2 236.35 59.4 237.3 54.0 233.15 48.55 229.05 47.65 222.25 46.7 215.45 50.85 210.05 54.95 204.6 61.75 203.65 68.55 202.75 74.0 206.9 79.4 211.0 80.35 217.8" fill="#363636" fill-rule="evenodd" stroke="none"/>
    <path d="M80.5 221.95 L48.6 226.3 47.65 219.55 79.55 215.2 80.5 221.95" fill="#40403f" fill-rule="evenodd" stroke="none"/>
    <path d="M580.6 211.2 Q585.95 206.9 592.75 207.6 599.55 208.35 603.8 213.65 608.1 218.95 607.4 225.75 606.7 232.55 601.35 236.85 596.05 241.15 589.25 240.45 582.45 239.75 578.15 234.4 573.85 229.1 574.55 222.3 575.3 215.5 580.6 211.2" fill="#363636" fill-rule="evenodd" stroke="none"/>
    <path d="M584.05 208.9 L604.3 233.95 599.0 238.2 578.75 213.2 584.05 208.9" fill="#40403f" fill-rule="evenodd" stroke="none"/>
    <path d="M486.5 91.2 Q486.5 94.65 482.65 97.1 478.8 99.5 473.35 99.5 L167.6 99.5 Q162.15 99.5 158.35 97.1 154.5 94.65 154.5 91.2 L154.5 55.85 Q154.5 52.4 158.35 49.95 162.15 47.5 167.6 47.5 L473.35 47.5 Q478.8 47.5 482.65 49.95 486.5 52.4 486.5 55.85 L486.5 91.2" fill="url(#gradient0)" fill-rule="evenodd" stroke="none"/>
    <path d="M167.5 55.0 Q167.5 56.7 166.35 57.85 165.15 59.0 163.5 59.0 161.8 59.0 160.65 57.85 159.5 56.7 159.5 55.0 159.5 53.35 160.65 52.2 161.8 51.0 163.5 51.0 165.15 51.0 166.35 52.2 167.5 53.35 167.5 55.0" fill="url(#gradient1)" fill-rule="evenodd" stroke="none"/>
    <path d="M167.0 89.5 Q167.0 91.2 165.85 92.35 164.65 93.5 163.0 93.5 161.3 93.5 160.15 92.35 159.0 91.2 159.0 89.5 159.0 87.85 160.15 86.7 161.3 85.5 163.0 85.5 164.65 85.5 165.85 86.7 167.0 87.85 167.0 89.5" fill="url(#gradient2)" fill-rule="evenodd" stroke="none"/>
    <path d="M481.0 55.0 Q481.0 56.7 479.85 57.85 478.65 59.0 477.0 59.0 475.3 59.0 474.15 57.85 473.0 56.7 473.0 55.0 473.0 53.35 474.15 52.2 475.3 51.0 477.0 51.0 478.65 51.0 479.85 52.2 481.0 53.35 481.0 55.0" fill="url(#gradient3)" fill-rule="evenodd" stroke="none"/>
    <path d="M481.0 92.0 Q481.0 93.7 479.85 94.85 478.65 96.0 477.0 96.0 475.3 96.0 474.15 94.85 473.0 93.7 473.0 92.0 473.0 90.35 474.15 89.2 475.3 88.0 477.0 88.0 478.65 88.0 479.85 89.2 481.0 90.35 481.0 92.0" fill="url(#gradient4)" fill-rule="evenodd" stroke="none"/>
  </g>
  <defs>
    <linearGradient gradientTransform="matrix(0.0, -0.0317, -0.0317, 0.0, 320.5, 73.5)" gradientUnits="userSpaceOnUse" id="gradient0" spreadMethod="pad" x1="-819.2" x2="819.2">
      <stop offset="0.01568627450980392" stop-color="#bf4339"/>
      <stop offset="0.023529411764705882" stop-color="#b94238"/>
      <stop offset="0.07058823529411765" stop-color="#8d362f"/>
      <stop offset="0.10980392156862745" stop-color="#743029"/>
      <stop offset="0.12549019607843137" stop-color="#6a2d27"/>
      <stop offset="0.24313725490196078" stop-color="#702f29"/>
      <stop offset="0.43529411764705883" stop-color="#7e322c"/>
      <stop offset="0.6784313725490196" stop-color="#963931"/>
      <stop offset="0.9607843137254902" stop-color="#ba4238"/>
      <stop offset="1.0" stop-color="#bf4339"/>
    </linearGradient>
    <radialGradient cx="0" cy="0" gradientTransform="matrix(0.0048, 0.0, 0.0, -0.0048, 163.5, 55.0)" gradientUnits="userSpaceOnUse" id="gradient1" r="819.2" spreadMethod="pad">
      <stop offset="0.0" stop-color="#363636"/>
      <stop offset="0.2" stop-color="#4b4948"/>
      <stop offset="0.4745098039215686" stop-color="#6f6d6d"/>
      <stop offset="0.7098039215686275" stop-color="#929192"/>
      <stop offset="0.8901960784313725" stop-color="#ababad"/>
      <stop offset="1.0" stop-color="#b8babc"/>
    </radialGradient>
    <radialGradient cx="0" cy="0" gradientTransform="matrix(0.0048, 0.0, 0.0, -0.0048, 163.0, 89.5)" gradientUnits="userSpaceOnUse" id="gradient2" r="819.2" spreadMethod="pad">
      <stop offset="0.0" stop-color="#363636"/>
      <stop offset="0.2" stop-color="#4b4948"/>
      <stop offset="0.4745098039215686" stop-color="#6f6d6d"/>
      <stop offset="0.7098039215686275" stop-color="#929192"/>
      <stop offset="0.8901960784313725" stop-color="#ababad"/>
      <stop offset="1.0" stop-color="#b8babc"/>
    </radialGradient>
    <radialGradient cx="0" cy="0" gradientTransform="matrix(0.0048, 0.0, 0.0, -0.0048, 477.0, 55.0)" gradientUnits="userSpaceOnUse" id="gradient3" r="819.2" spreadMethod="pad">
      <stop offset="0.0" stop-color="#363636"/>
      <stop offset="0.2" stop-color="#4b4948"/>
      <stop offset="0.4745098039215686" stop-color="#6f6d6d"/>
      <stop offset="0.7098039215686275" stop-color="#929192"/>
      <stop offset="0.8901960784313725" stop-color="#ababad"/>
      <stop offset="1.0" stop-color="#b8babc"/>
    </radialGradient>
    <radialGradient cx="0" cy="0" gradientTransform="matrix(0.0048, 0.0, 0.0, -0.0048, 477.0, 92.0)" gradientUnits="userSpaceOnUse" id="gradient4" r="819.2" spreadMethod="pad">
      <stop offset="0.0" stop-color="#363636"/>
      <stop offset="0.2" stop-color="#4b4948"/>
      <stop offset="0.4745098039215686" stop-color="#6f6d6d"/>
      <stop offset="0.7098039215686275" stop-color="#929192"/>
      <stop offset="0.8901960784313725" stop-color="#ababad"/>
      <stop offset="1.0" stop-color="#b8babc"/>
    </radialGradient>
  </defs>
</svg>
